<svg xmlns="http://www.w3.org/2000/svg" viewBox="0 0 64 64">
  <rect width="64" height="64" rx="14" fill="#060913"/>
  <!-- lemon body -->
  <g transform="rotate(-18 32 34)">
    <ellipse cx="32" cy="34" rx="19" ry="14" fill="#FFD92E"/>
    <path d="M13 34c-2.5-1-4.5-1-6 0 1.5 1 3.5 1 6 0Z" fill="#FFD92E"/>
    <path d="M51 34c2.5-1 4.5-1 6 0-1.5 1-3.5 1-6 0Z" fill="#FFD92E"/>
    <ellipse cx="27" cy="29" rx="7" ry="4" fill="#FFF4A3" opacity=".7"/>
  </g>
  <!-- leaf -->
  <path d="M40 17c4-5 9-6 13-5-1 4-4 8-9 8.5-2 .2-3.4-1.4-4-3.5Z" fill="#4FE3A8"/>
</svg>
